<?xml version="1.0" encoding="UTF-8" standalone="no"?>
<!-- Created with Inkscape (http://www.inkscape.org/) -->

<svg
   width="100mm"
   height="100mm"
   viewBox="0 0 100 100"
   version="1.1"
   id="svg1"
   inkscape:version="1.3.2 (091e20ef0f, 2023-11-25)"
   sodipodi:docname="novelupdates.svg"
   xmlns:inkscape="http://www.inkscape.org/namespaces/inkscape"
   xmlns:sodipodi="http://sodipodi.sourceforge.net/DTD/sodipodi-0.dtd"
   xmlns="http://www.w3.org/2000/svg"
   xmlns:svg="http://www.w3.org/2000/svg">
  <sodipodi:namedview
     id="namedview1"
     pagecolor="#505050"
     bordercolor="#eeeeee"
     borderopacity="1"
     inkscape:showpageshadow="0"
     inkscape:pageopacity="0"
     inkscape:pagecheckerboard="0"
     inkscape:deskcolor="#d1d1d1"
     inkscape:document-units="mm"
     inkscape:zoom="1.0806047"
     inkscape:cx="307.69809"
     inkscape:cy="242.91954"
     inkscape:window-width="2560"
     inkscape:window-height="1417"
     inkscape:window-x="2560"
     inkscape:window-y="0"
     inkscape:window-maximized="1"
     inkscape:current-layer="layer1"
     showgrid="false" />
  <defs
     id="defs1" />
  <g
     inkscape:label="Layer 1"
     inkscape:groupmode="layer"
     id="layer1"
     transform="translate(-23.355736,-45.014874)">
    <rect
       style="fill:#2c3e50;fill-opacity:1;stroke:none;stroke-width:0.264999"
       id="rect1"
       width="100"
       height="100"
       x="23.355736"
       y="45.014874" />
    <path
       style="font-weight:600;font-size:12.7px;line-height:1.25;font-family:'Open Sans';-inkscape-font-specification:'Open Sans Semi-Bold';fill:#e3e6e8;stroke-width:0.264583"
       d="m 37.016871,98.313896 h -1.816944 l -4.458642,-7.224365 h -0.04961 l 0.03101,0.403076 q 0.08682,1.153418 0.08682,2.108399 v 4.71289 h -1.345654 v -9.066113 h 1.798339 l 4.446241,7.187158 h 0.03721 q -0.0124,-0.142627 -0.04961,-1.035596 -0.03721,-0.899169 -0.03721,-1.401464 v -4.750098 h 1.358057 z m 8.321972,-3.44165 q 0,1.680517 -0.861963,2.623096 -0.861963,0.942578 -2.399854,0.942578 -0.961181,0 -1.699121,-0.434082 -0.737939,-0.434082 -1.134814,-1.246436 -0.396875,-0.812353 -0.396875,-1.885156 0,-1.668115 0.855762,-2.604492 0.855761,-0.936377 2.412256,-0.936377 1.488281,0 2.356445,0.961181 0.868164,0.954981 0.868164,2.579688 z m -4.991943,0 q 0,2.375049 1.754931,2.375049 1.736328,0 1.736328,-2.375049 0,-2.350244 -1.74873,-2.350244 -0.917774,0 -1.333252,0.607715 -0.409277,0.607714 -0.409277,1.742529 z m 7.974706,3.44165 -2.604493,-6.858496 h 1.537891 l 1.395264,3.987354 q 0.359668,1.004589 0.434082,1.624707 h 0.04961 q 0.05581,-0.446485 0.434082,-1.624707 L 50.963305,91.4554 h 1.550293 l -2.616895,6.858496 z m 8.228956,0.124024 q -1.599902,0 -2.505273,-0.930176 -0.89917,-0.936377 -0.89917,-2.573486 0,-1.680518 0.837158,-2.6417 0.837158,-0.961181 2.300635,-0.961181 1.358056,0 2.145605,0.824756 0.787549,0.824755 0.787549,2.269628 v 0.787549 h -4.570264 q 0.03101,0.998389 0.539502,1.537891 0.508497,0.533301 1.432471,0.533301 0.607715,0 1.128613,-0.111621 0.5271,-0.117823 1.128614,-0.384473 v 1.184424 q -0.533301,0.254248 -1.079004,0.359668 -0.545703,0.10542 -1.246436,0.10542 z m -0.26665,-6.002735 q -0.694531,0 -1.116211,0.440284 -0.415479,0.440283 -0.496094,1.283642 h 3.112988 q -0.0124,-0.84956 -0.409277,-1.283642 -0.396875,-0.440284 -1.091406,-0.440284 z m 6.046142,5.878711 h -1.457275 v -9.649023 h 1.457275 z m 12.644187,-9.066113 v 5.866309 q 0,1.004589 -0.434082,1.761132 -0.427881,0.750342 -1.246436,1.159619 -0.812353,0.403077 -1.947168,0.403077 -1.686718,0 -2.623095,-0.892969 -0.936377,-0.892969 -0.936377,-2.455664 v -5.841504 h 1.488281 v 5.736084 q 0,1.122412 0.520898,1.655713 0.520899,0.533301 1.599903,0.533301 2.095996,0 2.095996,-2.201416 v -5.723682 z m 5.643066,9.190137 q -1.302246,0 -2.021582,-0.936377 h -0.08682 q 0.08682,0.868164 0.08682,1.054199 v 2.809128 H 77.13845 V 91.4554 h 1.178222 q 0.04961,0.192237 0.204639,0.917774 h 0.07441 q 0.682129,-1.041797 2.046387,-1.041797 1.283642,0 1.996777,0.930176 0.719336,0.930175 0.719336,2.610693 0,1.680517 -0.731738,2.623096 -0.725537,0.942578 -2.00918,0.942578 z M 80.26384,92.522002 q -0.868164,0 -1.27124,0.508496 -0.396875,0.508496 -0.396875,1.624707 v 0.217041 q 0,1.252637 0.396875,1.816943 0.396875,0.558106 1.296045,0.558106 0.756543,0 1.16582,-0.620118 0.409278,-0.620117 0.409278,-1.767334 0,-1.153417 -0.409278,-1.742529 -0.403076,-0.595312 -1.190625,-0.595312 z m 7.100344,5.915918 q -1.283643,0 -2.002979,-0.930176 -0.719336,-0.930176 -0.719336,-2.610693 0,-1.686719 0.725537,-2.623096 0.731739,-0.942578 2.021582,-0.942578 1.351856,0 2.058789,0.998388 h 0.07442 q -0.10542,-0.737939 -0.10542,-1.16582 v -2.499072 h 1.463476 v 9.649023 h -1.141015 l -0.254248,-0.89917 h -0.06821 q -0.700733,1.023194 -2.052588,1.023194 z m 0.390674,-1.178223 q 0.899169,0 1.308447,-0.502295 0.409277,-0.508496 0.42168,-1.64331 v -0.204639 q 0,-1.296045 -0.42168,-1.841748 -0.42168,-0.545703 -1.32085,-0.545703 -0.768945,0 -1.184424,0.626318 -0.415478,0.620117 -0.415478,1.773535 0,1.141016 0.403076,1.742529 0.403076,0.595313 1.209229,0.595313 z m 9.500196,1.054199 -0.291455,-0.95498 h -0.04961 q -0.496094,0.626318 -0.998389,0.855761 -0.502295,0.223243 -1.289843,0.223243 -1.010791,0 -1.581299,-0.545704 -0.564307,-0.545703 -0.564307,-1.544091 0,-1.060401 0.787549,-1.599903 0.787549,-0.539502 2.399853,-0.589111 l 1.184424,-0.03721 v -0.365869 q 0,-0.657324 -0.310058,-0.979785 -0.303858,-0.328662 -0.94878,-0.328662 -0.527099,0 -1.010791,0.155029 -0.483691,0.155029 -0.930175,0.365869 l -0.471289,-1.041797 q 0.558105,-0.291455 1.22163,-0.440283 0.663526,-0.155029 1.252637,-0.155029 1.308447,0 1.971973,0.570508 0.669726,0.570507 0.669726,1.792138 v 4.619873 z m -2.17041,-0.992187 q 0.79375,0 1.27124,-0.440284 0.483692,-0.446484 0.483692,-1.246435 v -0.595313 l -0.880567,0.03721 q -1.029394,0.03721 -1.500683,0.347265 -0.465088,0.303858 -0.465088,0.936377 0,0.458887 0.272852,0.713135 0.272851,0.248047 0.818554,0.248047 z m 7.801076,-0.06201 q 0.5333,0 1.0666,-0.167432 v 1.097608 q -0.24185,0.10542 -0.62632,0.173633 -0.37827,0.07441 -0.78755,0.07441 -2.07119,0 -2.07119,-2.182813 v -3.695898 h -0.936379 v -0.644922 l 1.004589,-0.533301 0.4961,-1.451074 h 0.89916 V 91.4554 h 1.95337 v 1.103809 h -1.95337 v 3.671093 q 0,0.5271 0.26045,0.781348 0.26665,0.248047 0.69454,0.248047 z m 5.43222,1.178223 q -1.5999,0 -2.50527,-0.930176 -0.89917,-0.936377 -0.89917,-2.573486 0,-1.680518 0.83716,-2.6417 0.83716,-0.961181 2.30063,-0.961181 1.35806,0 2.14561,0.824756 0.78755,0.824755 0.78755,2.269628 v 0.787549 h -4.57027 q 0.031,0.998389 0.5395,1.537891 0.5085,0.533301 1.43247,0.533301 0.60772,0 1.12862,-0.111621 0.5271,-0.117823 1.12861,-0.384473 v 1.184424 q -0.5333,0.254248 -1.079,0.359668 -0.54571,0.10542 -1.24644,0.10542 z m -0.26665,-6.002735 q -0.69453,0 -1.11621,0.440284 -0.41548,0.440283 -0.49609,1.283642 h 3.11299 q -0.0124,-0.84956 -0.40928,-1.283642 -0.39688,-0.440284 -1.09141,-0.440284 z m 9.19634,3.925342 q 0,1.00459 -0.73174,1.544092 -0.73174,0.533301 -2.09599,0.533301 -1.37046,0 -2.20142,-0.415479 v -1.258838 q 1.20923,0.558106 2.25102,0.558106 1.34566,0 1.34566,-0.812354 0,-0.260449 -0.14883,-0.434082 -0.14883,-0.173633 -0.48989,-0.359668 -0.34107,-0.186035 -0.94878,-0.421679 -1.18443,-0.458887 -1.6061,-0.917774 -0.41548,-0.458887 -0.41548,-1.190625 0,-0.880566 0.70693,-1.364258 0.71314,-0.489892 1.93477,-0.489892 1.20922,0 2.28823,0.489892 l -0.47129,1.097608 q -1.11001,-0.458887 -1.86655,-0.458887 -1.15342,0 -1.15342,0.657324 0,0.322461 0.29765,0.545703 0.30386,0.223243 1.31465,0.613916 0.84956,0.328662 1.23404,0.601514 0.38447,0.272852 0.5705,0.63252 0.18604,0.353466 0.18604,0.84956 z"
       id="text1"
       aria-label="Novel Updates" />
  </g>
</svg>
