<?xml version="1.0" encoding="UTF-8" standalone="no"?>
<!-- Generator: Adobe Illustrator 19.2.1, SVG Export Plug-In . SVG Version: 6.00 Build 0)  -->

<svg
   version="1.1"
   id="layer"
   x="0px"
   y="0px"
   viewBox="0 0 652 652"
   style="enable-background:new 0 0 652 652;"
   xml:space="preserve"
   sodipodi:docname="wish-com-logo-vector-2023.svg"
   inkscape:version="1.3.2 (091e20ef0f, 2023-11-25)"
   xmlns:inkscape="http://www.inkscape.org/namespaces/inkscape"
   xmlns:sodipodi="http://sodipodi.sourceforge.net/DTD/sodipodi-0.dtd"
   xmlns="http://www.w3.org/2000/svg"
   xmlns:svg="http://www.w3.org/2000/svg"><defs
   id="defs1" /><sodipodi:namedview
   id="namedview1"
   pagecolor="#505050"
   bordercolor="#eeeeee"
   borderopacity="1"
   inkscape:showpageshadow="0"
   inkscape:pageopacity="0"
   inkscape:pagecheckerboard="0"
   inkscape:deskcolor="#d1d1d1"
   inkscape:zoom="0.93021472"
   inkscape:cx="331.10635"
   inkscape:cy="311.21847"
   inkscape:window-width="1593"
   inkscape:window-height="943"
   inkscape:window-x="1014"
   inkscape:window-y="103"
   inkscape:window-maximized="0"
   inkscape:current-layer="layer" />
<style
   type="text/css"
   id="style1">
	.st0{fill:#1E1E1C;}
</style>
<rect
   style="fill:#31e275;stroke-width:0.5;fill-opacity:1"
   id="rect1"
   width="652"
   height="652"
   x="0"
   y="0" /><path
   class="st0"
   d="m 453.24839,368.76613 c -2.40217,-26.90424 -25.17468,-33.6303 -47.46677,-41.02897 -20.08209,-6.72606 -39.01114,-8.35953 -41.02896,-22.77251 -2.20999,-15.27777 12.8756,-25.55903 28.6338,-22.86861 17.1034,2.97869 20.27426,16.14255 16.33471,24.69425 7.8791,9.70474 27.48076,8.74388 33.43813,1.92173 4.9965,-5.57302 6.62997,-14.79733 -3.74738,-23.54121 -12.68343,-10.76169 -38.81897,-15.85428 -63.80148,-11.14604 -24.59816,4.61216 -44.00765,21.04296 -41.89374,44.96851 2.40216,25.7512 20.65861,33.24596 49.77284,40.93288 28.05728,7.49475 37.28159,17.48776 35.45594,30.55553 -1.63347,11.62647 -11.53039,21.23513 -32.76552,18.73688 -21.23513,-2.49825 -32.28508,-18.64079 -27.96119,-36.99333 -24.11773,-5.57302 -34.59116,18.25645 -14.41298,33.91856 19.3134,15.08559 57.36368,16.4308 78.79098,8.26345 19.02514,-7.39867 32.86161,-20.7547 30.65162,-45.64112 z M 289.3247,265.08872 c 13.06778,0 23.73339,-9.41648 23.73339,-20.94687 0,-11.62648 -10.66561,-20.94687 -23.73339,-20.94687 -13.06777,0 -23.73338,9.41648 -23.73338,20.94687 0,11.53039 10.56952,20.94687 23.73338,20.94687 z m 18.6408,11.4343 c -11.91474,5.28476 -25.46294,5.28476 -37.37768,0 v 138.65292 h 37.47376 l -0.0961,-138.65292 v 0 z m 245.50118,-4.13172 c -13.06778,-0.0961 -25.84729,4.03564 -36.41681,11.81865 v -56.97934 h -38.43463 v 187.84924 h 38.33854 v -87.05443 c 0,-22.09991 3.36303,-32.57334 14.50907,-40.93288 10.08909,-7.59083 24.40599,-6.24562 32.189,-0.76869 9.41649,6.53389 8.93605,22.29209 8.93605,34.87943 v 93.97266 h 37.47376 v -94.54918 c 0.0961,-33.72639 -22.77251,-48.23546 -56.59498,-48.23546 z M 205.92156,415.17594 H 168.4478 l -29.49857,-85.80531 -20.85079,85.70922 H 80.62468 L 33.638349,276.61911 H 72.169062 L 111.9489,396.53514 c 14.22081,-40.16418 23.15686,-77.63794 9.3204,-119.91603 h 37.47376 c 0,0 47.1785,138.55683 47.1785,138.55683 z m 15.56603,-142.97681 c -8.16736,14.41298 -18.73688,27.28858 -31.32422,38.05028 13.5482,14.79733 24.21381,31.99682 31.32422,50.7337 7.1104,-18.73688 17.67993,-36.03246 31.32422,-50.7337 -12.58734,-10.7617 -23.15686,-23.6373 -31.32422,-38.05028 z"
   id="path1"
   style="stroke-width:0.960866" />
</svg>
